<svg xmlns="http://www.w3.org/2000/svg" width="164.03680077186988" height="146" viewBox="0 0 164.03680077186988 146" font-family="system-ui,sans-serif"><rect width="164.03680077186988" height="146" fill="#fcfcfb"/><polyline points="50.0,74.1 50.0,56.1 50.0,74.1 82.0,96.0" fill="none" stroke="#eb6834" stroke-width="2" stroke-dasharray="5 4" opacity="0.85"/><circle cx="50" cy="74.11526948699392" r="5" fill="none" stroke="#eb6834" stroke-width="2"/><text x="59" y="78.11526948699392" font-size="11" fill="#eb6834">61° corner</text><polyline points="50.0,74.1 50.0,71.9 50.0,69.6 50.0,67.4 50.0,65.1 50.0,62.9 50.0,60.6 50.0,58.4 50.3,61.6 51.0,64.7 52.1,67.7 53.6,70.6 55.3,73.3 57.2,75.8 59.3,78.3 61.6,80.6 63.9,82.8 66.3,84.9 68.8,86.9 71.4,88.8 74.0,90.7 76.6,92.5 79.3,94.3 82.0,96.0 82.0,96.0 82.0,96.0 82.0,96.0 82.0,96.0" fill="none" stroke="#2a78d6" stroke-width="2.5"/><circle cx="50" cy="74.11526948699392" r="2.4" fill="#2a78d6"/><circle cx="50" cy="71.86526948699392" r="2.4" fill="#2a78d6"/><circle cx="50" cy="69.61526948699392" r="2.4" fill="#2a78d6"/><circle cx="50" cy="67.36526948699392" r="2.4" fill="#2a78d6"/><circle cx="50" cy="65.11526948699392" r="2.4" fill="#2a78d6"/><circle cx="50" cy="62.865269486993924" r="2.4" fill="#2a78d6"/><circle cx="50" cy="60.615269486993924" r="2.4" fill="#2a78d6"/><circle cx="50" cy="58.365269486993924" r="2.4" fill="#2a78d6"/><circle cx="50.256602709284095" cy="61.56322890730739" r="2.4" fill="#2a78d6"/><circle cx="50.980592006946495" cy="64.68875333338914" r="2.4" fill="#2a78d6"/><circle cx="52.10738426139045" cy="67.69337757716445" r="2.4" fill="#2a78d6"/><circle cx="53.56236742680852" cy="70.5547169901562" r="2.4" fill="#2a78d6"/><circle cx="55.29326833639914" cy="73.2584757347493" r="2.4" fill="#2a78d6"/><circle cx="57.226425894834335" cy="75.82123780730223" r="2.4" fill="#2a78d6"/><circle cx="59.317267520407995" cy="78.25783772756392" r="2.4" fill="#2a78d6"/><circle cx="61.550485384335786" cy="80.56477981296653" r="2.4" fill="#2a78d6"/><circle cx="63.88287317099241" cy="82.77156219377099" r="2.4" fill="#2a78d6"/><circle cx="66.30329170034116" cy="84.88153294107842" r="2.4" fill="#2a78d6"/><circle cx="68.79988936584158" cy="86.90093517494195" r="2.4" fill="#2a78d6"/><circle cx="71.3545523959234" cy="88.84635634651345" r="2.4" fill="#2a78d6"/><circle cx="73.95971761891951" cy="90.7236928861677" r="2.4" fill="#2a78d6"/><circle cx="76.60894287605464" cy="92.53843309473736" r="2.4" fill="#2a78d6"/><circle cx="79.29673458976936" cy="94.29564835450618" r="2.4" fill="#2a78d6"/><circle cx="82.01840038593491" cy="96" r="2.4" fill="#2a78d6"/><circle cx="82.01840038593491" cy="96" r="2.4" fill="#2a78d6"/><circle cx="82.01840038593491" cy="96" r="2.4" fill="#2a78d6"/><circle cx="82.01840038593491" cy="96" r="2.4" fill="#2a78d6"/><circle cx="82.01840038593491" cy="96" r="2.4" fill="#2a78d6"/><circle cx="50" cy="74.11526948699392" r="16" fill="#1baf7a" fill-opacity="0.18" stroke="#1baf7a" stroke-width="2"/><text x="50" y="78.11526948699392" text-anchor="middle" font-size="10" fill="#0b0b0b">start</text><circle cx="82.01840038593491" cy="96" r="16" fill="#1baf7a" fill-opacity="0.3" stroke="#1baf7a" stroke-width="2.5"/><text x="82.01840038593491" y="100" text-anchor="middle" font-size="10" fill="#0b0b0b">end</text><circle cx="50" cy="56.115269486993924" r="16" fill="none" stroke="#898781" stroke-width="1.5" stroke-dasharray="3 3"/><text x="50" y="35.115269486993924" text-anchor="middle" font-size="10" fill="#898781">beat-1 step out</text><text x="12" y="20" font-size="13" font-weight="600" fill="#0b0b0b">Dile Que No (4): the follower's beats 2-3</text><text x="12" y="38" font-size="11" fill="#52514e">dashed orange = before (back to the start, then a hard turn for the spoke) · blue = now, one rounded arc</text></svg>